<svg width="13" height="15" viewBox="0 0 13 15" fill="none" xmlns="http://www.w3.org/2000/svg">
<path d="M10.2913 9.64362C9.9301 9.64351 9.5725 9.71509 9.23973 9.85414C8.90696 9.99318 8.60578 10.1969 8.35402 10.4531L5.23346 8.46924C5.47892 7.84663 5.47892 7.15552 5.23346 6.53291L8.35402 4.54904C8.82275 5.02396 9.45307 5.30981 10.1228 5.35118C10.7925 5.39254 11.4538 5.18646 11.9787 4.7729C12.5035 4.35934 12.8544 3.76776 12.9633 3.11285C13.0722 2.45795 12.9313 1.78637 12.5681 1.22833C12.2048 0.670295 11.645 0.265549 10.9972 0.0925662C10.3494 -0.0804165 9.65972 -0.00931157 9.06189 0.292095C8.46407 0.593502 8.00069 1.10374 7.76159 1.72388C7.52249 2.34402 7.52471 3.02988 7.76782 3.6485L4.64725 5.63237C4.27147 5.25078 3.78919 4.98869 3.26204 4.87962C2.7349 4.77055 2.18685 4.81945 1.68794 5.02007C1.18904 5.22068 0.761952 5.5639 0.461277 6.00584C0.160603 6.44778 0 6.96838 0 7.50107C0 8.03377 0.160603 8.55436 0.461277 8.99631C0.761952 9.43825 1.18904 9.78147 1.68794 9.98208C2.18685 10.1827 2.7349 10.2316 3.26204 10.1225C3.78919 10.0135 4.27147 9.75137 4.64725 9.36978L7.76782 11.3536C7.55876 11.887 7.52783 12.4725 7.67954 13.0244C7.83125 13.5764 8.15764 14.0658 8.61091 14.421C9.06418 14.7762 9.62052 14.9786 10.1985 14.9984C10.7764 15.0182 11.3456 14.8545 11.8226 14.5312C12.2997 14.208 12.6596 13.7421 12.8496 13.2019C13.0397 12.6616 13.0498 12.0754 12.8787 11.529C12.7075 10.9827 12.364 10.5049 11.8984 10.1656C11.4328 9.82634 10.8696 9.64341 10.2913 9.64362ZM10.2913 1.07342C10.6127 1.07342 10.9268 1.16766 11.1939 1.34423C11.4611 1.5208 11.6693 1.77177 11.7923 2.06539C11.9152 2.35902 11.9474 2.68212 11.8847 2.99383C11.822 3.30554 11.6673 3.59186 11.4401 3.81659C11.2129 4.04132 10.9234 4.19437 10.6083 4.25637C10.2931 4.31837 9.9665 4.28655 9.66964 4.16493C9.37279 4.0433 9.11906 3.83734 8.94055 3.57309C8.76204 3.30883 8.66676 2.99815 8.66676 2.68033C8.66676 2.25415 8.83792 1.84543 9.14259 1.54407C9.44726 1.24272 9.86048 1.07342 10.2913 1.07342ZM2.70993 9.10799C2.38861 9.10799 2.07452 9.01374 1.80735 8.83717C1.54019 8.6606 1.33196 8.40964 1.209 8.11601C1.08604 7.82239 1.05387 7.49929 1.11655 7.18758C1.17924 6.87587 1.33397 6.58954 1.56117 6.36481C1.78837 6.14008 2.07785 5.98704 2.39299 5.92504C2.70812 5.86303 3.03478 5.89486 3.33163 6.01648C3.62849 6.1381 3.88221 6.34406 4.06072 6.60832C4.23924 6.87258 4.33452 7.18326 4.33452 7.50107C4.33452 7.92725 4.16335 8.33598 3.85869 8.63733C3.55402 8.93869 3.14079 9.10799 2.70993 9.10799ZM10.2913 13.9287C9.97003 13.9287 9.65593 13.8345 9.38877 13.6579C9.12161 13.4813 8.91338 13.2304 8.79042 12.9368C8.66746 12.6431 8.63529 12.32 8.69797 12.0083C8.76066 11.6966 8.91538 11.4103 9.14259 11.1856C9.36979 10.9608 9.65926 10.8078 9.9744 10.7458C10.2895 10.6838 10.6162 10.7156 10.913 10.8372C11.2099 10.9588 11.4636 11.1648 11.6421 11.4291C11.8207 11.6933 11.9159 12.004 11.9159 12.3218C11.9159 12.748 11.7448 13.1567 11.4401 13.4581C11.1354 13.7594 10.7222 13.9287 10.2913 13.9287Z" fill="black"/>
</svg>
